<svg xmlns="http://www.w3.org/2000/svg" viewBox="0 0 32 32">
  <defs>
    <linearGradient id="g" x1="0" y1="0" x2="1" y2="1">
      <stop offset="0" stop-color="#5b7cfa" />
      <stop offset="1" stop-color="#8a5bfa" />
    </linearGradient>
  </defs>
  <rect width="32" height="32" rx="8" fill="url(#g)" />
  <path
    d="M23.5 9.5 22 15l1.8 1.8a1 1 0 0 1-1.4 1.4L18.6 15l-3.4 1 1.4 2.6a1 1 0 0 1-1.3 1.4l-2.7-1.5-2.6 1.4a1 1 0 0 1-1.4-1.3L9.5 14 8 11.3A1 1 0 0 1 9.3 10l2.7 1.4L15 8.6l-.5-3.6A1 1 0 0 1 16.3 4l1.7 4.4z"
    fill="#fff"
  />
</svg>
